# xmcd
#
# Track frame offsets:
#	150
#	13307
#	27303
#	40862
#	52882
#	64955
#	78311
#	92770
#	106813
#	120576
#	132115
#	142681
#	155599
#	168136
#	183410
#	195181
#	206942
#	218695
#	230836
#	243952
#
# Disc length: 3388 seconds
#
# Revision: 2
# Processed by: cddbd v1.5.2PL0 Copyright (c) Steve Scherf et al.
# Submitted via: audiograbber 1.83.01
#
DISCID=090d3a14
DTITLE=Ray Charles - 40 Greatest Hits [CD1]
DYEAR=2007
DGENRE=Blues
TTITLE0=I've Got A Woman
TTITLE1=Kissa Me Baby
TTITLE2=The Midnight Hour
TTITLE3=Mess Around
TTITLE4=It Should've Been Me
TTITLE5=Don't You Know
TTITLE6=Losing Hand
TTITLE7=Come Back Baby
TTITLE8=A Fool For You
TTITLE9=This Little Girl Of Mine
TTITLE10=Black Jack
TTITLE11=Greenbacks
TTITLE12=Mary Ann
TTITLE13=Drown In My Own Tears
TTITLE14=What Would I Do Without You
TTITLE15=Hallelujah I Love Her So
TTITLE16=Lonely Avenue
TTITLE17=Leave My Woman Alone
TTITLE18=Ain't That Love
TTITLE19=It's All Right
EXTD=CDDBID: 090D3A14
EXTT0=
EXTT1=
EXTT2=
EXTT3=
EXTT4=
EXTT5=
EXTT6=
EXTT7=
EXTT8=
EXTT9=
EXTT10=
EXTT11=
EXTT12=
EXTT13=
EXTT14=
EXTT15=
EXTT16=
EXTT17=
EXTT18=
EXTT19=
PLAYORDER=
